# xmcd
#
# Track frame offsets: 
#        150
#        23384
#        42518
#        67929
#        85139
#        111055
#        136864
#        161326
#        188456
#        200726
#        232709
#
# Disc length: 3363 seconds
#
# Revision: 5
# Processed by: cddbd v1.5.2PL0 Copyright (c) Steve Scherf et al.
# Submitted via: ExactAudioCopy v1.0b6
#
DISCID=7a0d210b
DTITLE=Vivino Brothers Blues Band - Vivino Brothers Blues Band
DYEAR=2000
DGENRE=Blues
TTITLE0=Fat Burns
TTITLE1=Slippin' and Slidin'
TTITLE2=Pusher Man
TTITLE3=Knockin' Myself Out
TTITLE4=P. D. Bop
TTITLE5=Jealous Kind
TTITLE6=Feedback Out On Highway 101
TTITLE7=Livin' In Vain
TTITLE8=Itchin' and Scratchin'
TTITLE9=Sinner's Prayer
TTITLE10=Family Affair
EXTD=ACD
EXTT0=
EXTT1=
EXTT2=
EXTT3=
EXTT4=
EXTT5=
EXTT6=
EXTT7=
EXTT8=
EXTT9=
EXTT10=
PLAYORDER=
